<svg xmlns="http://www.w3.org/2000/svg" viewBox="0 0 1280 800" width="1280" height="800"><defs><filter id="soft"><feGaussianBlur stdDeviation="1.1"/></filter><filter id="softer"><feGaussianBlur stdDeviation="2.4"/></filter><radialGradient id="glowM" cx="30%" cy="10%" r="70%"><stop offset="0%" stop-color="#B54A6E" stop-opacity="0.32"/><stop offset="100%" stop-color="#B54A6E" stop-opacity="0"/></radialGradient><radialGradient id="glowC" cx="75%" cy="8%" r="65%"><stop offset="0%" stop-color="#D98B4A" stop-opacity="0.24"/><stop offset="100%" stop-color="#D98B4A" stop-opacity="0"/></radialGradient><linearGradient id="bg" x1="0%" y1="0%" x2="0%" y2="100%"><stop offset="0%" stop-color="#241720"/><stop offset="45%" stop-color="#1B1116"/><stop offset="100%" stop-color="#120B0E"/></linearGradient></defs><rect width="1280" height="800" fill="url(#bg)"/><rect width="1280" height="800" fill="url(#glowM)"/><rect width="1280" height="800" fill="url(#glowC)"/><defs><radialGradient id="haze015" cx="50%" cy="50%" r="50%"><stop offset="0%" stop-color="#A85C38" stop-opacity="0.18"/><stop offset="100%" stop-color="#A85C38" stop-opacity="0"/></radialGradient></defs>
<circle cx="15.7" cy="49.5" r="326.4" fill="url(#haze015)"/>
<defs><radialGradient id="haze155" cx="50%" cy="50%" r="50%"><stop offset="0%" stop-color="#A85C38" stop-opacity="0.18"/><stop offset="100%" stop-color="#A85C38" stop-opacity="0"/></radialGradient></defs>
<circle cx="55.4" cy="418.1" r="351.9" fill="url(#haze155)"/>
<defs><radialGradient id="haze2969" cx="50%" cy="50%" r="50%"><stop offset="0%" stop-color="#A85C38" stop-opacity="0.18"/><stop offset="100%" stop-color="#A85C38" stop-opacity="0"/></radialGradient></defs>
<circle cx="969.7" cy="64.9" r="388.7" fill="url(#haze2969)"/><path d="M243.2,128.0 L1036.8,128.0 L1036.8,152.5 Q970.7,208.5 904.5,152.5 Q838.4,208.5 772.3,152.5 Q706.1,208.5 640.0,152.5 Q573.9,208.5 507.7,152.5 Q441.6,208.5 375.5,152.5 Q309.3,208.5 243.2,152.5 L243.2,128.0 Z" fill="#0F0A0C"/><path d="M422.4,688.0 L422.4,457.6 A217.6,217.6 0 0 1 857.6,457.6 L857.6,688.0 Z" fill="#0F0A0C"/>
<path d="M483.3,688.0 L483.3,433.2 A156.7,156.7 0 0 1 796.7,433.2 L796.7,688.0 Z" fill="#241720" fill-opacity="0.55"/><g filter="url(#soft)">
<ellipse cx="379.6" cy="162.2" rx="28.3" ry="24.0" fill="#0F0A0C"/>
<ellipse cx="356.7" cy="171.2" rx="25.8" ry="22.0" fill="#0F0A0C"/>
<ellipse cx="401.1" cy="169.1" rx="31.0" ry="26.4" fill="#0F0A0C"/>
<ellipse cx="368.2" cy="169.9" rx="22.3" ry="19.0" fill="#0F0A0C"/>
<ellipse cx="351.7" cy="171.7" rx="28.1" ry="23.9" fill="#0F0A0C"/>
<ellipse cx="369.0" cy="181.8" rx="16.5" ry="14.0" fill="#0F0A0C"/>
<ellipse cx="377.4" cy="161.7" rx="17.8" ry="15.1" fill="#0F0A0C"/>
<ellipse cx="400.4" cy="171.6" rx="22.0" ry="18.7" fill="#0F0A0C"/>
<ellipse cx="392.2" cy="165.2" rx="23.1" ry="19.7" fill="#0F0A0C"/>
<ellipse cx="341.4" cy="166.4" rx="23.0" ry="19.6" fill="#0F0A0C"/>
<ellipse cx="368.9" cy="173.1" rx="29.8" ry="25.3" fill="#0F0A0C"/>
<ellipse cx="359.7" cy="172.7" rx="20.6" ry="17.5" fill="#0F0A0C"/>
<ellipse cx="351.0" cy="177.6" rx="26.9" ry="22.8" fill="#0F0A0C"/>
<ellipse cx="369.7" cy="169.6" rx="28.6" ry="24.3" fill="#0F0A0C"/>
</g>
<circle cx="398.2" cy="166.8" r="6.3" fill="#F3B98C" fill-opacity="0.60"/>
<circle cx="398.2" cy="166.8" r="6.4" fill="#B54A6E" fill-opacity="0.51"/>
<circle cx="367.8" cy="166.9" r="3.4" fill="#F3B98C" fill-opacity="0.68"/>
<circle cx="367.8" cy="166.9" r="4.5" fill="#B54A6E" fill-opacity="0.54"/>
<circle cx="348.0" cy="169.7" r="4.3" fill="#F3B98C" fill-opacity="0.69"/>
<circle cx="348.0" cy="169.7" r="6.2" fill="#B54A6E" fill-opacity="0.33"/>
<circle cx="376.6" cy="167.4" r="4.6" fill="#F3B98C" fill-opacity="0.42"/>
<circle cx="376.6" cy="167.4" r="5.7" fill="#B54A6E" fill-opacity="0.37"/>
<circle cx="325.4" cy="167.6" r="6.5" fill="#F3B98C" fill-opacity="0.47"/>
<circle cx="325.4" cy="167.6" r="3.8" fill="#B54A6E" fill-opacity="0.55"/>
<circle cx="367.9" cy="162.7" r="5.3" fill="#F3B98C" fill-opacity="0.58"/>
<circle cx="367.9" cy="162.7" r="6.1" fill="#B54A6E" fill-opacity="0.55"/>
<circle cx="359.4" cy="178.6" r="6.1" fill="#F3B98C" fill-opacity="0.57"/>
<circle cx="359.4" cy="178.6" r="5.9" fill="#B54A6E" fill-opacity="0.45"/>
<circle cx="358.7" cy="184.3" r="3.4" fill="#F3B98C" fill-opacity="0.57"/>
<circle cx="358.7" cy="184.3" r="5.9" fill="#B54A6E" fill-opacity="0.42"/>
<circle cx="367.5" cy="164.6" r="5.2" fill="#F3B98C" fill-opacity="0.56"/>
<circle cx="367.5" cy="164.6" r="6.6" fill="#B54A6E" fill-opacity="0.33"/>
<circle cx="351.1" cy="178.7" r="6.3" fill="#F3B98C" fill-opacity="0.71"/>
<circle cx="351.1" cy="178.7" r="5.9" fill="#B54A6E" fill-opacity="0.54"/>
<circle cx="323.7" cy="168.5" r="5.1" fill="#F3B98C" fill-opacity="0.60"/>
<circle cx="323.7" cy="168.5" r="5.0" fill="#B54A6E" fill-opacity="0.48"/>
<circle cx="358.2" cy="169.9" r="3.9" fill="#F3B98C" fill-opacity="0.62"/>
<circle cx="358.2" cy="169.9" r="4.3" fill="#B54A6E" fill-opacity="0.50"/>
<circle cx="371.0" cy="171.4" r="5.0" fill="#F3B98C" fill-opacity="0.52"/>
<circle cx="371.0" cy="171.4" r="3.9" fill="#B54A6E" fill-opacity="0.37"/>
<circle cx="373.8" cy="181.3" r="3.4" fill="#F3B98C" fill-opacity="0.63"/>
<circle cx="373.8" cy="181.3" r="5.7" fill="#B54A6E" fill-opacity="0.35"/><g filter="url(#soft)">
<ellipse cx="958.0" cy="179.5" rx="19.0" ry="16.2" fill="#0F0A0C"/>
<ellipse cx="898.1" cy="164.6" rx="25.7" ry="21.9" fill="#0F0A0C"/>
<ellipse cx="899.0" cy="163.2" rx="31.9" ry="27.1" fill="#0F0A0C"/>
<ellipse cx="953.8" cy="162.1" rx="30.0" ry="25.5" fill="#0F0A0C"/>
<ellipse cx="944.6" cy="174.7" rx="23.1" ry="19.6" fill="#0F0A0C"/>
<ellipse cx="909.3" cy="169.2" rx="16.0" ry="13.6" fill="#0F0A0C"/>
<ellipse cx="929.2" cy="183.3" rx="19.6" ry="16.7" fill="#0F0A0C"/>
<ellipse cx="934.6" cy="171.4" rx="32.3" ry="27.4" fill="#0F0A0C"/>
<ellipse cx="941.2" cy="164.0" rx="32.5" ry="27.6" fill="#0F0A0C"/>
<ellipse cx="882.0" cy="168.2" rx="31.0" ry="26.4" fill="#0F0A0C"/>
<ellipse cx="927.7" cy="182.0" rx="27.0" ry="22.9" fill="#0F0A0C"/>
<ellipse cx="925.2" cy="167.6" rx="18.1" ry="15.4" fill="#0F0A0C"/>
<ellipse cx="881.6" cy="175.1" rx="32.7" ry="27.8" fill="#0F0A0C"/>
<ellipse cx="936.7" cy="169.9" rx="20.4" ry="17.3" fill="#0F0A0C"/>
</g>
<circle cx="903.9" cy="163.5" r="4.3" fill="#F3B98C" fill-opacity="0.71"/>
<circle cx="903.9" cy="163.5" r="6.5" fill="#B54A6E" fill-opacity="0.36"/>
<circle cx="953.7" cy="168.5" r="5.8" fill="#F3B98C" fill-opacity="0.70"/>
<circle cx="953.7" cy="168.5" r="5.5" fill="#B54A6E" fill-opacity="0.48"/>
<circle cx="969.0" cy="161.7" r="4.9" fill="#F3B98C" fill-opacity="0.51"/>
<circle cx="969.0" cy="161.7" r="4.8" fill="#B54A6E" fill-opacity="0.53"/>
<circle cx="950.7" cy="177.0" r="4.6" fill="#F3B98C" fill-opacity="0.47"/>
<circle cx="950.7" cy="177.0" r="6.2" fill="#B54A6E" fill-opacity="0.49"/>
<circle cx="954.1" cy="162.7" r="6.5" fill="#F3B98C" fill-opacity="0.48"/>
<circle cx="954.1" cy="162.7" r="6.1" fill="#B54A6E" fill-opacity="0.40"/>
<circle cx="902.4" cy="163.0" r="3.7" fill="#F3B98C" fill-opacity="0.59"/>
<circle cx="902.4" cy="163.0" r="4.4" fill="#B54A6E" fill-opacity="0.48"/>
<circle cx="902.1" cy="170.0" r="5.8" fill="#F3B98C" fill-opacity="0.51"/>
<circle cx="902.1" cy="170.0" r="5.9" fill="#B54A6E" fill-opacity="0.53"/>
<circle cx="956.2" cy="176.3" r="5.1" fill="#F3B98C" fill-opacity="0.43"/>
<circle cx="956.2" cy="176.3" r="4.9" fill="#B54A6E" fill-opacity="0.42"/>
<circle cx="948.6" cy="177.0" r="5.5" fill="#F3B98C" fill-opacity="0.40"/>
<circle cx="948.6" cy="177.0" r="5.5" fill="#B54A6E" fill-opacity="0.54"/>
<circle cx="913.3" cy="169.0" r="6.6" fill="#F3B98C" fill-opacity="0.56"/>
<circle cx="913.3" cy="169.0" r="4.5" fill="#B54A6E" fill-opacity="0.53"/>
<circle cx="936.9" cy="183.8" r="5.3" fill="#F3B98C" fill-opacity="0.47"/>
<circle cx="936.9" cy="183.8" r="4.0" fill="#B54A6E" fill-opacity="0.31"/>
<circle cx="896.4" cy="166.0" r="6.2" fill="#F3B98C" fill-opacity="0.54"/>
<circle cx="896.4" cy="166.0" r="5.8" fill="#B54A6E" fill-opacity="0.33"/>
<circle cx="879.6" cy="162.6" r="6.5" fill="#F3B98C" fill-opacity="0.58"/>
<circle cx="879.6" cy="162.6" r="4.4" fill="#B54A6E" fill-opacity="0.36"/>
<circle cx="929.9" cy="164.8" r="3.5" fill="#F3B98C" fill-opacity="0.70"/>
<circle cx="929.9" cy="164.8" r="4.3" fill="#B54A6E" fill-opacity="0.48"/><g filter="url(#soft)">
<ellipse cx="662.1" cy="160.6" rx="19.3" ry="16.4" fill="#0F0A0C"/>
<ellipse cx="651.6" cy="159.5" rx="25.8" ry="22.0" fill="#0F0A0C"/>
<ellipse cx="615.1" cy="163.7" rx="21.2" ry="18.0" fill="#0F0A0C"/>
<ellipse cx="622.9" cy="158.0" rx="13.6" ry="11.6" fill="#0F0A0C"/>
<ellipse cx="624.1" cy="169.0" rx="24.3" ry="20.7" fill="#0F0A0C"/>
<ellipse cx="629.0" cy="152.7" rx="24.9" ry="21.1" fill="#0F0A0C"/>
<ellipse cx="629.7" cy="159.4" rx="22.2" ry="18.8" fill="#0F0A0C"/>
<ellipse cx="642.1" cy="159.3" rx="19.9" ry="16.9" fill="#0F0A0C"/>
<ellipse cx="657.4" cy="168.6" rx="25.1" ry="21.4" fill="#0F0A0C"/>
<ellipse cx="640.9" cy="158.5" rx="18.9" ry="16.0" fill="#0F0A0C"/>
</g>
<circle cx="651.4" cy="155.3" r="3.6" fill="#F3B98C" fill-opacity="0.70"/>
<circle cx="651.4" cy="155.3" r="3.5" fill="#B54A6E" fill-opacity="0.31"/>
<circle cx="653.4" cy="164.0" r="5.0" fill="#F3B98C" fill-opacity="0.69"/>
<circle cx="653.4" cy="164.0" r="4.6" fill="#B54A6E" fill-opacity="0.36"/>
<circle cx="639.3" cy="164.4" r="3.2" fill="#F3B98C" fill-opacity="0.45"/>
<circle cx="639.3" cy="164.4" r="3.5" fill="#B54A6E" fill-opacity="0.40"/>
<circle cx="642.7" cy="160.0" r="4.3" fill="#F3B98C" fill-opacity="0.64"/>
<circle cx="642.7" cy="160.0" r="4.7" fill="#B54A6E" fill-opacity="0.46"/>
<circle cx="662.1" cy="159.1" r="3.1" fill="#F3B98C" fill-opacity="0.74"/>
<circle cx="662.1" cy="159.1" r="4.6" fill="#B54A6E" fill-opacity="0.48"/>
<circle cx="627.7" cy="159.2" r="5.3" fill="#F3B98C" fill-opacity="0.46"/>
<circle cx="627.7" cy="159.2" r="4.1" fill="#B54A6E" fill-opacity="0.47"/>
<circle cx="632.4" cy="167.3" r="4.0" fill="#F3B98C" fill-opacity="0.47"/>
<circle cx="632.4" cy="167.3" r="4.0" fill="#B54A6E" fill-opacity="0.30"/>
<circle cx="650.9" cy="166.1" r="4.6" fill="#F3B98C" fill-opacity="0.57"/>
<circle cx="650.9" cy="166.1" r="3.5" fill="#B54A6E" fill-opacity="0.35"/>
<circle cx="658.1" cy="155.1" r="4.0" fill="#F3B98C" fill-opacity="0.73"/>
<circle cx="658.1" cy="155.1" r="3.1" fill="#B54A6E" fill-opacity="0.53"/>
<circle cx="617.1" cy="164.3" r="4.3" fill="#F3B98C" fill-opacity="0.68"/>
<circle cx="617.1" cy="164.3" r="2.9" fill="#B54A6E" fill-opacity="0.30"/>
<circle cx="673.7" cy="155.0" r="4.2" fill="#F3B98C" fill-opacity="0.48"/>
<circle cx="673.7" cy="155.0" r="3.7" fill="#B54A6E" fill-opacity="0.40"/>
<circle cx="638.3" cy="170.5" r="3.8" fill="#F3B98C" fill-opacity="0.43"/>
<circle cx="638.3" cy="170.5" r="3.0" fill="#B54A6E" fill-opacity="0.34"/>
<circle cx="654.7" cy="162.7" r="3.6" fill="#F3B98C" fill-opacity="0.59"/>
<circle cx="654.7" cy="162.7" r="3.8" fill="#B54A6E" fill-opacity="0.37"/>
<circle cx="620.0" cy="161.9" r="3.0" fill="#F3B98C" fill-opacity="0.49"/>
<circle cx="620.0" cy="161.9" r="5.0" fill="#B54A6E" fill-opacity="0.54"/><ellipse cx="307.2" cy="688.0" rx="48.3" ry="13.7" fill="#0F0A0C"/>
<rect x="304.1" y="688.0" width="6.3" height="42.0" fill="#0F0A0C"/>
<ellipse cx="275.7" cy="742.6" rx="16.8" ry="8.4" fill="none" stroke="#E2895E" stroke-opacity="0.4" stroke-width="2.1"/>
<ellipse cx="338.7" cy="742.6" rx="16.8" ry="8.4" fill="none" stroke="#E2895E" stroke-opacity="0.4" stroke-width="2.1"/><ellipse cx="972.8" cy="688.0" rx="43.7" ry="12.3" fill="#0F0A0C"/>
<rect x="969.9" y="688.0" width="5.7" height="38.0" fill="#0F0A0C"/>
<ellipse cx="944.3" cy="737.4" rx="15.2" ry="7.6" fill="none" stroke="#E2895E" stroke-opacity="0.4" stroke-width="1.9"/>
<ellipse cx="1001.3" cy="737.4" rx="15.2" ry="7.6" fill="none" stroke="#E2895E" stroke-opacity="0.4" stroke-width="1.9"/><rect x="0.5" y="0.5" width="1279" height="799" fill="none" stroke="#E2895E" stroke-opacity="0.18"/></svg>