<svg xmlns="http://www.w3.org/2000/svg" viewBox="0 0 1000 1250" width="1000" height="1250" role="img" aria-label="PLACEHOLDER — RNB FLOOR">
  <defs>
    <linearGradient id="g" x1="0%" y1="0%" x2="100%" y2="100%" gradientTransform="rotate(100 0.5 0.5)">
      <stop offset="0%" stop-color="#141210"/>
      <stop offset="60%" stop-color="#060605"/>
      <stop offset="100%" stop-color="#060605"/>
    </linearGradient>
    <radialGradient id="glow" cx="22%" cy="16%" r="58%">
      <stop offset="0%" stop-color="#8A6A1D" stop-opacity="0.45"/>
      <stop offset="100%" stop-color="#8A6A1D" stop-opacity="0"/>
    </radialGradient>
  </defs>
  <rect width="1000" height="1250" fill="url(#g)"/>
  <rect width="1000" height="1250" fill="url(#glow)"/>
  <circle cx="238.0" cy="680.3" r="1.0" fill="#D4AF37" opacity="0.12"/>
    <circle cx="625.7" cy="81.9" r="0.6" fill="#D4AF37" opacity="0.14"/>
    <circle cx="259.4" cy="292.9" r="1.8" fill="#D4AF37" opacity="0.11"/>
    <circle cx="836.5" cy="595.4" r="1.4" fill="#D4AF37" opacity="0.08"/>
    <circle cx="634.9" cy="1085.1" r="1.2" fill="#D4AF37" opacity="0.13"/>
    <circle cx="671.4" cy="80.0" r="1.5" fill="#D4AF37" opacity="0.12"/>
    <circle cx="301.3" cy="38.8" r="1.6" fill="#D4AF37" opacity="0.11"/>
    <circle cx="718.8" cy="1098.5" r="1.5" fill="#D4AF37" opacity="0.15"/>
    <circle cx="395.0" cy="1001.1" r="1.1" fill="#D4AF37" opacity="0.15"/>
    <circle cx="878.9" cy="121.8" r="0.8" fill="#D4AF37" opacity="0.08"/>
    <circle cx="965.5" cy="545.2" r="1.4" fill="#D4AF37" opacity="0.09"/>
    <circle cx="507.2" cy="482.3" r="1.0" fill="#D4AF37" opacity="0.12"/>
    <circle cx="584.3" cy="1130.3" r="1.4" fill="#D4AF37" opacity="0.15"/>
    <circle cx="856.4" cy="1238.7" r="1.4" fill="#D4AF37" opacity="0.08"/>
    <circle cx="860.6" cy="1205.8" r="1.7" fill="#D4AF37" opacity="0.12"/>
    <circle cx="713.8" cy="263.9" r="1.6" fill="#D4AF37" opacity="0.12"/>
    <circle cx="285.0" cy="79.3" r="1.6" fill="#D4AF37" opacity="0.16"/>
    <circle cx="88.5" cy="1000.7" r="1.1" fill="#D4AF37" opacity="0.08"/>
  <rect x="0.5" y="0.5" width="999" height="1249" fill="none" stroke="#D4AF37" stroke-opacity="0.22"/>
  <text x="500.0" y="625.0" text-anchor="middle" dominant-baseline="middle" font-family="Georgia, serif" font-size="29" letter-spacing="2" fill="#F5F1E8" fill-opacity="0.4">PLACEHOLDER — RNB FLOOR</text>
</svg>