<svg xmlns="http://www.w3.org/2000/svg" viewBox="0 0 800 800" width="800" height="800" role="img" aria-label="PLACEHOLDER — GALLERY 01">
  <defs>
    <linearGradient id="g" x1="0%" y1="0%" x2="100%" y2="100%" gradientTransform="rotate(47 0.5 0.5)">
      <stop offset="0%" stop-color="#1E1720"/>
      <stop offset="55%" stop-color="#120E14"/>
      <stop offset="100%" stop-color="#120E14"/>
    </linearGradient>
    <radialGradient id="glow" cx="30%" cy="20%" r="65%">
      <stop offset="0%" stop-color="#5B1F2E" stop-opacity="0.55"/>
      <stop offset="100%" stop-color="#5B1F2E" stop-opacity="0"/>
    </radialGradient>
  </defs>
  <rect width="800" height="800" fill="url(#g)"/>
  <rect width="800" height="800" fill="url(#glow)"/>
  <circle cx="361.9" cy="447.8" r="2.1" fill="#C9A24B" opacity="0.09"/>
    <circle cx="406.3" cy="469.9" r="0.9" fill="#C9A24B" opacity="0.09"/>
    <circle cx="503.9" cy="634.4" r="0.8" fill="#C9A24B" opacity="0.07"/>
    <circle cx="72.5" cy="647.7" r="1.7" fill="#C9A24B" opacity="0.04"/>
    <circle cx="785.8" cy="771.8" r="1.6" fill="#C9A24B" opacity="0.10"/>
    <circle cx="126.0" cy="12.0" r="1.4" fill="#C9A24B" opacity="0.05"/>
    <circle cx="152.2" cy="193.6" r="0.6" fill="#C9A24B" opacity="0.09"/>
    <circle cx="352.4" cy="673.9" r="1.4" fill="#C9A24B" opacity="0.10"/>
    <circle cx="399.8" cy="530.0" r="1.3" fill="#C9A24B" opacity="0.07"/>
    <circle cx="798.1" cy="796.6" r="1.9" fill="#C9A24B" opacity="0.11"/>
    <circle cx="252.2" cy="183.7" r="1.1" fill="#C9A24B" opacity="0.05"/>
    <circle cx="613.0" cy="320.3" r="2.0" fill="#C9A24B" opacity="0.08"/>
    <circle cx="766.4" cy="677.8" r="0.6" fill="#C9A24B" opacity="0.06"/>
    <circle cx="728.2" cy="376.0" r="2.2" fill="#C9A24B" opacity="0.08"/>
    <circle cx="58.4" cy="503.6" r="1.8" fill="#C9A24B" opacity="0.07"/>
    <circle cx="69.7" cy="266.1" r="2.1" fill="#C9A24B" opacity="0.12"/>
    <circle cx="94.4" cy="197.1" r="0.8" fill="#C9A24B" opacity="0.05"/>
    <circle cx="637.6" cy="142.1" r="1.5" fill="#C9A24B" opacity="0.08"/>
    <circle cx="152.5" cy="585.5" r="0.8" fill="#C9A24B" opacity="0.10"/>
    <circle cx="93.2" cy="336.6" r="0.9" fill="#C9A24B" opacity="0.07"/>
    <circle cx="776.7" cy="642.7" r="1.1" fill="#C9A24B" opacity="0.13"/>
    <circle cx="168.6" cy="315.4" r="2.0" fill="#C9A24B" opacity="0.10"/>
    <circle cx="80.3" cy="791.4" r="0.9" fill="#C9A24B" opacity="0.07"/>
    <circle cx="618.2" cy="263.2" r="1.1" fill="#C9A24B" opacity="0.05"/>
    <circle cx="72.1" cy="466.2" r="1.0" fill="#C9A24B" opacity="0.10"/>
    <circle cx="297.4" cy="362.6" r="2.1" fill="#C9A24B" opacity="0.09"/>
  <rect x="0.5" y="0.5" width="799" height="799" fill="none" stroke="#C9A24B" stroke-opacity="0.18"/>
  <text x="400.0" y="400.0" text-anchor="middle" dominant-baseline="middle" font-family="Georgia, serif" font-size="23" letter-spacing="2" fill="#F1E9DD" fill-opacity="0.4">PLACEHOLDER — GALLERY 01</text>
</svg>